<svg width="20" height="20" viewBox="0 0 20 20" fill="none" xmlns="http://www.w3.org/2000/svg">
<path d="M10.8867 5.57087L11.5075 5.31587C12.0117 5.11587 12.6633 4.9117 13.4325 5.04087C15.0083 5.30587 16.095 6.1567 16.7425 7.28503C16.9925 7.72004 16.7908 8.29337 16.3242 8.47587C15.9244 8.63226 15.5826 8.90829 15.3456 9.26623C15.1086 9.62418 14.988 10.0466 15.0001 10.4757C15.0122 10.9048 15.1566 11.3197 15.4134 11.6637C15.6702 12.0077 16.027 12.264 16.435 12.3975C16.8667 12.5392 17.11 13.0184 16.9683 13.45C16.6 14.5684 16.07 15.6009 15.4425 16.4342C14.8225 17.2575 14.0658 17.9409 13.2233 18.275C12.6733 18.4917 12.0833 18.4109 11.5192 18.2709L11.1842 18.1817L10.6867 18.0375C10.4608 17.9717 10.2283 17.915 9.99999 17.915C9.77082 17.915 9.53916 17.9717 9.31332 18.0375L8.81582 18.1817L8.48082 18.2709C7.91666 18.4109 7.32582 18.4925 6.77665 18.275C5.71582 17.855 4.77999 16.875 4.07249 15.7192C3.30654 14.4464 2.8012 13.034 2.58582 11.5642C2.39665 10.2692 2.49915 8.81504 3.09832 7.58504C3.71499 6.31754 4.84499 5.33087 6.56749 5.04087C7.26749 4.92337 7.86915 5.08087 8.35082 5.2617L8.62666 5.37003L9.11332 5.57087C9.44666 5.7017 9.70916 5.77837 9.99999 5.77837C10.29 5.77837 10.5533 5.7017 10.8867 5.57087ZM9.80665 2.3067C10.62 1.49253 11.8692 1.42253 12.1633 1.71753C12.4583 2.0117 12.3883 3.26087 11.5742 4.0742C10.7608 4.88753 9.51166 4.95753 9.21749 4.66337C8.92249 4.3692 8.99249 3.12003 9.80665 2.3067Z" fill="#F5F3FF"/>
</svg>
