<svg width="44" height="45" viewBox="0 0 44 45" fill="none" xmlns="http://www.w3.org/2000/svg">
<rect y="0.5" width="44" height="44" rx="12" fill="#694BF1" fill-opacity="0.1"/>
<path d="M26.4333 23.2169V24.0502C26.4333 25.2058 26.3 26.3335 26.0333 27.4335C25.7666 28.5335 25.3722 29.5891 24.85 30.6002L24.65 30.9502L23.2 30.1335C24.1778 28.3669 24.7 26.4669 24.7666 24.4335V23.2169H26.4333ZM21.4333 20.7169H23.1V24.3669C23.0666 25.5224 22.8583 26.6363 22.475 27.7085C22.0916 28.7808 21.55 29.7669 20.85 30.6669L20.6666 30.9002L19.3666 29.8502C20.0111 29.0724 20.5083 28.2169 20.8583 27.2835C21.2083 26.3502 21.4 25.378 21.4333 24.3669V20.7169ZM22.2666 17.3835C23.0222 17.3835 23.7194 17.5724 24.3583 17.9502C24.9972 18.328 25.5028 18.8335 25.875 19.4669C26.2472 20.1002 26.4333 20.7946 26.4333 21.5502H24.7666C24.7666 21.1058 24.6555 20.6919 24.4333 20.3085C24.2111 19.9252 23.9083 19.6196 23.525 19.3919C23.1416 19.1641 22.725 19.0502 22.275 19.0502C21.825 19.0502 21.4083 19.1641 21.025 19.3919C20.6416 19.6196 20.3361 19.9252 20.1083 20.3085C19.8805 20.6919 19.7666 21.1058 19.7666 21.5502V24.0502C19.7666 24.9835 19.6028 25.878 19.275 26.7335C18.9472 27.5891 18.4833 28.3558 17.8833 29.0335L17.7 29.2335L16.5 28.0835C16.9889 27.5724 17.3694 26.9919 17.6416 26.3419C17.9139 25.6919 18.0666 25.0113 18.1 24.3002V21.5502C18.1 20.7946 18.2889 20.1002 18.6666 19.4669C19.0444 18.8335 19.55 18.328 20.1833 17.9502C20.8166 17.5724 21.5111 17.3835 22.2666 17.3835ZM22.2666 14.0502C23.6333 14.0502 24.8944 14.3946 26.05 15.0835C27.1833 15.7391 28.0833 16.6335 28.75 17.7669C29.4278 18.9335 29.7666 20.1946 29.7666 21.5502V24.0502C29.7666 25.4613 29.6 26.8502 29.2666 28.2169L29.15 28.6669L27.55 28.2335C27.8833 27.0224 28.0666 25.7891 28.1 24.5335V24.0502V21.5502C28.1 20.4946 27.8333 19.5169 27.3 18.6169C26.7889 17.7391 26.0944 17.0391 25.2166 16.5169C24.3055 15.9835 23.3222 15.7169 22.2666 15.7169C21.6222 15.7169 21.0028 15.8196 20.4083 16.0252C19.8139 16.2308 19.2722 16.5169 18.7833 16.8835L17.5833 15.7002C18.2389 15.178 18.9611 14.7724 19.75 14.4835C20.5611 14.1946 21.4 14.0502 22.2666 14.0502ZM16.4166 16.8669L17.6 18.0669C17.2444 18.5335 16.9666 19.0474 16.7666 19.6085C16.5666 20.1696 16.4555 20.7502 16.4333 21.3502V23.2169C16.4333 24.1613 16.2222 25.0446 15.8 25.8669L15.6833 26.1169L14.2333 25.2835C14.5555 24.7169 14.7333 24.1113 14.7666 23.4669V23.2169V21.5502C14.7666 20.6835 14.9111 19.8446 15.2 19.0335C15.4889 18.2446 15.8944 17.5224 16.4166 16.8669Z" fill="#694BF1"/>
</svg>
