<svg width="18" height="18" viewBox="0 0 18 18" fill="none" xmlns="http://www.w3.org/2000/svg">
<path d="M10.267 10.125H12.0666L12.7865 7.125H10.267V5.625C10.267 5.285 10.2814 5.04 10.3101 4.89C10.3677 4.65 10.4925 4.465 10.6845 4.335C10.9148 4.195 11.2556 4.125 11.7067 4.125H12.7865V1.605C12.6233 1.585 12.3641 1.565 12.009 1.545C11.5675 1.515 11.1404 1.5 10.7277 1.5C10.0654 1.5 9.48232 1.6375 8.97842 1.9125C8.47452 2.1875 8.08819 2.58 7.81945 3.09C7.53151 3.64 7.38753 4.285 7.38753 5.025V7.125H5.22797V10.125H7.38753V16.5H10.267V10.125Z" fill="#122231"/>
</svg>
