<svg width="18" height="18" viewBox="0 0 18 18" fill="none" xmlns="http://www.w3.org/2000/svg">
<path d="M9.00001 6.75C8.60649 6.75 8.24416 6.85 7.91303 7.05C7.5819 7.25 7.32035 7.5225 7.12839 7.8675C6.93643 8.2125 6.84045 8.59 6.84045 9C6.84045 9.41 6.93643 9.7875 7.12839 10.1325C7.32035 10.4775 7.5819 10.75 7.91303 10.95C8.24416 11.15 8.60649 11.25 9.00001 11.25C9.39353 11.25 9.75586 11.15 10.087 10.95C10.4181 10.75 10.6797 10.4775 10.8716 10.1325C11.0636 9.7875 11.1596 9.41 11.1596 9C11.1596 8.59 11.0636 8.2125 10.8716 7.8675C10.6797 7.5225 10.4181 7.25 10.087 7.05C9.75586 6.85 9.39353 6.75 9.00001 6.75ZM9.00001 5.25C9.65268 5.25 10.255 5.4175 10.8069 5.7525C11.3587 6.0875 11.7955 6.5425 12.117 7.1175C12.4385 7.6925 12.5993 8.32 12.5993 9C12.5993 9.68 12.4385 10.3075 12.117 10.8825C11.7955 11.4575 11.3587 11.9125 10.8069 12.2475C10.255 12.5825 9.65268 12.75 9.00001 12.75C8.34734 12.75 7.74506 12.5825 7.19317 12.2475C6.64128 11.9125 6.20457 11.4575 5.88304 10.8825C5.5615 10.3075 5.40073 9.68 5.40073 9C5.40073 8.32 5.5615 7.6925 5.88304 7.1175C6.20457 6.5425 6.64128 6.0875 7.19317 5.7525C7.74506 5.4175 8.34734 5.25 9.00001 5.25ZM13.6791 5.055C13.6791 5.315 13.5903 5.5375 13.4127 5.7225C13.2352 5.9075 13.024 6 12.7793 6C12.5345 6 12.3233 5.9075 12.1458 5.7225C11.9682 5.5375 11.8794 5.3175 11.8794 5.0625C11.8794 4.8075 11.9682 4.5875 12.1458 4.4025C12.3233 4.2175 12.5345 4.125 12.7793 4.125C13.024 4.125 13.2352 4.2175 13.4127 4.4025C13.5903 4.5875 13.6791 4.805 13.6791 5.055ZM9.00001 3C8.11699 3 7.51711 3.0025 7.20037 3.0075C6.88364 3.0125 6.51891 3.025 6.10619 3.045C5.5879 3.065 5.15598 3.145 4.81045 3.285C4.51291 3.405 4.25136 3.5825 4.02581 3.8175C3.80025 4.0525 3.62989 4.325 3.51471 4.635C3.38034 4.995 3.30355 5.445 3.28436 5.985C3.26516 6.395 3.25316 6.7625 3.24836 7.0875C3.24356 7.4125 3.24116 8.05 3.24116 9C3.24116 9.92 3.24356 10.545 3.24836 10.875C3.25316 11.205 3.26516 11.585 3.28436 12.015C3.30355 12.555 3.38034 13.005 3.51471 13.365C3.62989 13.675 3.80025 13.9475 4.02581 14.1825C4.25136 14.4175 4.51291 14.59 4.81045 14.7C5.15598 14.85 5.5879 14.935 6.10619 14.955C6.49971 14.975 6.85244 14.9875 7.16438 14.9925C7.47632 14.9975 8.0882 15 9.00001 15C9.88304 15 10.4829 14.9975 10.7997 14.9925C11.1164 14.9875 11.4811 14.975 11.8938 14.955C12.4121 14.935 12.844 14.855 13.1896 14.715C13.4871 14.595 13.7487 14.4175 13.9742 14.1825C14.1998 13.9475 14.3653 13.675 14.4709 13.365C14.6149 13.005 14.6965 12.555 14.7157 12.015C14.7349 11.605 14.7469 11.2375 14.7517 10.9125C14.7565 10.5875 14.7589 9.95 14.7589 9C14.7589 8.08 14.7565 7.455 14.7517 7.125C14.7469 6.795 14.7349 6.415 14.7157 5.985C14.6965 5.445 14.6197 4.995 14.4853 4.635C14.3701 4.325 14.1998 4.0525 13.9742 3.8175C13.7487 3.5825 13.4871 3.405 13.1896 3.285C12.844 3.145 12.4121 3.065 11.8938 3.045C11.5003 3.025 11.1476 3.0125 10.8356 3.0075C10.5237 3.0025 9.91183 3 9.00001 3ZM9.00001 1.5C9.94063 1.5 10.5837 1.505 10.9292 1.515C11.2172 1.515 11.5627 1.525 11.9658 1.545C12.6377 1.575 13.2184 1.69 13.7079 1.89C14.1974 2.09 14.6245 2.38 14.9892 2.76C15.3539 3.14 15.6323 3.585 15.8242 4.095C16.0162 4.605 16.1266 5.21 16.1554 5.91C16.1746 6.34 16.1842 6.7 16.1842 6.99C16.1938 7.37 16.1986 8.045 16.1986 9.015C16.1986 9.985 16.1938 10.65 16.1842 11.01C16.1842 11.31 16.1746 11.67 16.1554 12.09C16.1266 12.79 16.0162 13.395 15.8242 13.905C15.6323 14.415 15.3539 14.86 14.9892 15.24C14.6245 15.62 14.1974 15.91 13.7079 16.11C13.2184 16.31 12.6377 16.425 11.9658 16.455C11.5531 16.475 11.2076 16.485 10.9292 16.485C10.5645 16.495 9.91663 16.5 8.98562 16.5C8.0546 16.5 7.41633 16.495 7.0708 16.485C6.78286 16.485 6.43733 16.475 6.03421 16.455C5.36234 16.425 4.78166 16.31 4.29215 16.11C3.80265 15.91 3.37554 15.62 3.01081 15.24C2.64608 14.86 2.36774 14.415 2.17578 13.905C1.98382 13.395 1.87344 12.79 1.84464 12.09C1.82545 11.66 1.81585 11.3 1.81585 11.01C1.80625 10.63 1.80145 9.955 1.80145 8.985C1.80145 8.015 1.80625 7.35 1.81585 6.99C1.81585 6.69 1.82545 6.33 1.84464 5.91C1.87344 5.21 1.98382 4.605 2.17578 4.095C2.36774 3.585 2.64608 3.14 3.01081 2.76C3.37554 2.38 3.80265 2.09 4.29215 1.89C4.78166 1.69 5.36234 1.575 6.03421 1.545C6.44692 1.525 6.79245 1.515 7.0708 1.515C7.43553 1.505 8.0786 1.5 9.00001 1.5Z" fill="#122231"/>
</svg>
