<svg width="18" height="18" viewBox="0 0 18 18" fill="none" xmlns="http://www.w3.org/2000/svg">
<path d="M5.0264 3.75C5.0168 4.06 4.93042 4.34 4.76725 4.59C4.60408 4.84 4.38812 5.0225 4.11938 5.1375C3.85063 5.2525 3.57229 5.28 3.28435 5.22C2.9964 5.16 2.74925 5.02 2.54289 4.8C2.33653 4.58 2.20936 4.32 2.16137 4.02C2.11338 3.72 2.14697 3.43 2.26215 3.15C2.37733 2.87 2.55969 2.6475 2.80924 2.4825C3.05879 2.3175 3.33234 2.24 3.62988 2.25C4.0138 2.26 4.34253 2.41 4.61608 2.7C4.88962 2.99 5.0264 3.34 5.0264 3.75ZM5.06959 6.36H2.19016V15.75H5.06959V6.36ZM9.61908 6.36H6.75405V15.75H9.59028V10.83C9.59028 10.3 9.70546 9.85 9.93582 9.48C10.1566 9.14 10.4397 8.905 10.7852 8.775C11.1308 8.645 11.4763 8.635 11.8218 8.745C12.1674 8.855 12.4457 9.075 12.6569 9.405C12.8968 9.785 13.0168 10.26 13.0168 10.83V15.75H15.8674V9.81C15.8674 8.93 15.6851 8.185 15.3203 7.575C15.0036 7.045 14.5621 6.645 13.9958 6.375C13.4775 6.145 12.916 6.045 12.3113 6.075C11.7259 6.105 11.1836 6.2575 10.6845 6.5325C10.1854 6.8075 9.82064 7.17 9.59028 7.62L9.61908 6.36Z" fill="#122231"/>
</svg>
