<svg width="114" height="24" viewBox="0 0 114 24" fill="none" xmlns="http://www.w3.org/2000/svg">
<path d="M14.8208 0.00118937C15.6712 0.000585511 16.5202 -0.023677 17.3549 0.1799C18.505 0.454965 19.5597 1.05852 20.4008 1.92306C21.7956 3.37054 22.2652 5.06834 22.267 7.07443V14.3215C22.2676 15.2153 22.2786 16.0834 22.0708 16.9592C21.7844 18.1485 21.1941 19.2343 20.3627 20.0998C19.8917 20.5876 19.3509 20.9959 18.7592 21.3088C17.1718 22.1459 15.6711 22.035 13.9663 22.0324L8.9438 22.0315C8.47793 22.0312 6.97914 21.9715 6.65181 22.0725C6.42663 22.1419 6.1914 22.3149 5.98384 22.4348L4.39107 23.3547C4.08032 23.5343 3.76538 23.7389 3.43697 23.8801C3.28528 23.9453 3.11289 24.0112 2.94673 23.9983C2.82261 23.9886 2.72243 23.9078 2.64986 23.8059C2.55721 23.6756 2.51634 23.5116 2.50533 23.3518C2.46678 22.7921 2.7297 21.4371 2.82173 20.8088C2.61821 20.6624 2.41731 20.5064 2.22994 20.3381C0.940182 19.1688 0.149637 17.51 0.0336472 15.7297C-0.0094298 15.1241 0.0032689 14.5142 0.00337376 13.9074L0.00532689 11.218L0.00435032 8.20334C0.0045041 7.20061 -0.0407246 6.17312 0.16646 5.18771C0.389684 4.11787 0.865572 3.12297 1.55025 2.29416C2.74797 0.857111 4.36286 0.146646 6.15767 0.0129081C6.28085 0.000248257 6.40881 0.00212105 6.53267 0.00118937L12.7612 0.00314249L14.8208 0.00118937ZM9.29927 2.259C8.82165 2.29746 8.34061 2.34305 7.86665 2.41623C7.28844 2.50555 7.04654 2.64888 6.42427 2.57931C6.09878 2.78164 5.53658 3.29249 5.44673 3.67306C5.41798 3.79542 5.40084 3.94156 5.33052 4.04709C5.18758 4.261 4.93771 4.39256 4.75435 4.5676C4.48482 4.82511 3.64951 5.87202 3.53462 6.21506C3.41563 6.57175 3.47222 7.14468 3.41451 7.54416C3.36124 7.91198 3.20885 8.40398 3.40767 8.73752C3.63105 9.11127 4.80771 10.4128 5.1606 10.4904C5.99711 10.6743 7.12548 10.0745 7.94185 10.1965C8.19835 10.235 8.35982 10.4882 8.60396 10.5461C8.78822 10.5898 9.17506 10.5451 9.29341 10.7209C9.50932 11.0426 9.26594 11.6391 9.32662 12.01C9.44737 12.7429 10.518 13.6598 10.3286 14.4807C10.2288 14.9114 9.87912 15.2683 9.87837 15.7287C9.8778 16.2303 10.2813 16.7047 10.4448 17.1643C10.5622 17.4949 10.6054 17.8475 10.7124 18.1809C10.8187 18.5122 10.987 18.82 11.102 19.1487C11.18 19.3715 11.2344 19.6309 11.3481 19.8362C11.4305 19.9846 11.5447 20.0909 11.7055 20.135C12.0564 20.2308 12.5728 20.0719 12.9213 19.9768C13.5415 19.748 14.2138 19.2021 14.5014 18.5725C14.6159 18.3216 14.6715 18.1197 14.8881 17.9358C14.992 17.8476 15.0994 17.767 15.1899 17.6633C15.1885 17.1892 15.0713 16.6818 15.4135 16.3078C15.8913 15.7859 16.4496 15.6719 16.4477 14.8127C16.4461 14.2071 16.1011 13.0869 16.3364 12.5842C16.4182 12.41 16.5978 12.2378 16.727 12.1008C17.2405 11.5563 18.0666 10.9196 18.4419 10.2922C18.5982 10.0306 18.7037 9.73255 18.8071 9.44455C18.8765 9.25118 18.9873 8.99871 18.9799 8.78928C18.9774 8.72133 18.9631 8.66405 18.9155 8.61447C18.8519 8.5485 18.728 8.55619 18.646 8.56369C18.2214 8.60266 17.7946 8.71423 17.3725 8.78049C16.527 8.09454 16.112 7.28962 15.6049 6.3342C15.4177 5.98162 15.2059 5.62514 15.0542 5.25412C14.9549 5.01105 14.7404 3.96518 14.5786 3.86252C14.3102 3.69319 13.4596 3.74007 13.1069 3.6799C12.7363 3.61653 12.2823 3.35691 11.9145 3.41525C11.6411 3.4588 11.5873 3.7103 11.3764 3.83322C11.2899 3.88359 11.1884 3.88618 11.0932 3.8674C10.8713 3.82347 9.98601 3.458 9.78658 3.32248C9.70917 3.26983 9.65668 3.21759 9.63912 3.11838C9.59451 2.86488 9.77208 2.54467 9.62251 2.31564C9.53106 2.25294 9.40591 2.24615 9.29927 2.259ZM18.4575 14.7346C18.1796 14.9495 17.3929 15.5579 17.2514 15.841C17.1055 16.1351 17.0115 16.9071 16.9604 17.2561C16.9358 17.424 16.8911 17.6184 16.9985 17.7639C17.0329 17.8104 17.091 17.8384 17.1391 17.8654C17.3054 17.8686 17.5514 17.9032 17.6792 17.7688C17.988 17.4426 18.6434 15.5558 18.6352 15.1008C18.6332 14.9894 18.6106 14.855 18.5346 14.7717C18.5029 14.7369 18.5077 14.7468 18.4575 14.7346Z" fill="#694BF1"/>
<path d="M29.3991 19.3443H25.7843L31.2922 3.38951H35.6392L41.1393 19.3443H37.5245L33.528 7.03543H33.4034L29.3991 19.3443ZM29.1732 13.073H37.7115V15.7062H29.1732V13.073Z" fill="#F5F3FF"/>
<path d="M48.3405 7.37821V9.87115H40.9551V7.37821H48.3405ZM42.6456 19.3443V6.51347C42.6456 5.64614 42.8144 4.92682 43.152 4.35552C43.4948 3.78422 43.9622 3.35575 44.5543 3.0701C45.1464 2.78445 45.8189 2.64163 46.572 2.64163C47.081 2.64163 47.5458 2.68058 47.9665 2.75848C48.3924 2.83639 48.7092 2.9065 48.9169 2.96883L48.3249 5.46176C48.195 5.42021 48.034 5.38126 47.8419 5.34491C47.6549 5.30855 47.4627 5.29037 47.2654 5.29037C46.7772 5.29037 46.437 5.40463 46.2448 5.63315C46.0527 5.85648 45.9566 6.17069 45.9566 6.5758V19.3443H42.6456Z" fill="#F5F3FF"/>
<path d="M49.4904 19.3443V7.37821H52.7078V9.46605H52.8325C53.0506 8.72336 53.4168 8.16245 53.9309 7.78331C54.4451 7.39898 55.0372 7.20682 55.7072 7.20682C55.8734 7.20682 56.0525 7.21721 56.2447 7.23798C56.4369 7.25876 56.6057 7.28732 56.7511 7.32368V10.2685C56.5953 10.2217 56.3797 10.1802 56.1045 10.1438C55.8292 10.1075 55.5773 10.0893 55.3488 10.0893C54.8606 10.0893 54.4243 10.1958 54.04 10.4087C53.6609 10.6164 53.3596 10.9073 53.1363 11.2812C52.9182 11.6552 52.8091 12.0862 52.8091 12.5744V19.3443H49.4904Z" fill="#F5F3FF"/>
<path d="M57.5894 19.3443V7.37821H60.9081V19.3443H57.5894ZM59.2566 5.8357C58.7632 5.8357 58.3399 5.6721 57.9867 5.34491C57.6387 5.01251 57.4648 4.6152 57.4648 4.15297C57.4648 3.69593 57.6387 3.30381 57.9867 2.97662C58.3399 2.64422 58.7632 2.47803 59.2566 2.47803C59.75 2.47803 60.1706 2.64422 60.5186 2.97662C60.8718 3.30381 61.0484 3.69593 61.0484 4.15297C61.0484 4.6152 60.8718 5.01251 60.5186 5.34491C60.1706 5.6721 59.75 5.8357 59.2566 5.8357Z" fill="#F5F3FF"/>
<path d="M62.1438 6.17069V3.38951H75.2473V6.17069H70.3627V19.3443H67.0284V6.17069H62.1438Z" fill="#F5F3FF"/>
<path d="M78.2494 19.5702C77.4859 19.5702 76.8056 19.4378 76.2083 19.1729C75.611 18.9029 75.1384 18.5055 74.7904 17.981C74.4477 17.4512 74.2763 16.7916 74.2763 16.0022C74.2763 15.3374 74.3983 14.7791 74.6424 14.3273C74.8865 13.8754 75.2189 13.5119 75.6396 13.2366C76.0603 12.9614 76.5381 12.7536 77.073 12.6134C77.6132 12.4732 78.1793 12.3745 78.7714 12.3173C79.4673 12.2446 80.0282 12.1771 80.4541 12.1148C80.88 12.0473 81.189 11.9486 81.3812 11.8188C81.5733 11.6889 81.6694 11.4968 81.6694 11.2423V11.1955C81.6694 10.7021 81.5136 10.3204 81.202 10.0503C80.8955 9.78026 80.4593 9.64523 79.8932 9.64523C79.2959 9.64523 78.8207 9.77766 78.4675 10.0425C78.1144 10.3022 77.8806 10.6294 77.7664 11.0241L74.697 10.7748C74.8528 10.0477 75.1592 9.4193 75.6162 8.88955C76.0733 8.35461 76.6628 7.94431 77.3847 7.65866C78.1118 7.36782 78.9531 7.2224 79.9088 7.2224C80.5735 7.2224 81.2098 7.30031 81.8174 7.45611C82.4303 7.61192 82.973 7.85343 83.4456 8.18062C83.9234 8.50782 84.3 8.92851 84.5752 9.44267C84.8505 9.95165 84.9881 10.5619 84.9881 11.2734V19.3443H81.8408V17.685H81.7473C81.5551 18.0589 81.2981 18.3887 80.9761 18.6743C80.654 18.9548 80.2671 19.1755 79.8153 19.3365C79.3634 19.4923 78.8415 19.5702 78.2494 19.5702ZM79.1998 17.2798C79.688 17.2798 80.1191 17.1838 80.493 16.9916C80.867 16.7942 81.1604 16.5294 81.3734 16.197C81.5863 15.8646 81.6928 15.488 81.6928 15.0674V13.7975C81.5889 13.865 81.4461 13.9274 81.2643 13.9845C81.0877 14.0364 80.8878 14.0858 80.6644 14.1325C80.4411 14.1741 80.2178 14.213 79.9945 14.2494C79.7711 14.2805 79.5686 14.3091 79.3868 14.3351C78.9973 14.3922 78.6571 14.4831 78.3663 14.6077C78.0754 14.7324 77.8495 14.9012 77.6885 15.1141C77.5275 15.3219 77.447 15.5815 77.447 15.8932C77.447 16.345 77.6106 16.6904 77.9378 16.9293C78.2702 17.163 78.6909 17.2798 79.1998 17.2798Z" fill="#F5F3FF"/>
<path d="M90.0041 3.38951V19.3443H86.6853V3.38951H90.0041Z" fill="#F5F3FF"/>
<path d="M94.7921 15.9009L94.7999 11.92H95.2829L99.1158 7.37821H102.925L97.7759 13.3924H96.9891L94.7921 15.9009ZM91.785 19.3443V3.38951H95.1038V19.3443H91.785ZM99.2638 19.3443L95.7426 14.1325L97.9551 11.7876L103.151 19.3443H99.2638Z" fill="#F5F3FF"/>
<path d="M113.632 10.7904L110.594 10.9774C110.542 10.7177 110.43 10.484 110.259 10.2763C110.088 10.0633 109.862 9.89452 109.581 9.76987C109.306 9.64003 108.976 9.57511 108.592 9.57511C108.078 9.57511 107.644 9.68418 107.291 9.90231C106.938 10.1152 106.761 10.4009 106.761 10.7593C106.761 11.0449 106.875 11.2864 107.104 11.4838C107.332 11.6811 107.724 11.8395 108.28 11.959L110.446 12.3952C111.609 12.6342 112.477 13.0185 113.048 13.5482C113.619 14.078 113.905 14.7739 113.905 15.6361C113.905 16.4203 113.674 17.1085 113.212 17.7005C112.754 18.2926 112.126 18.7548 111.326 19.0872C110.532 19.4144 109.615 19.578 108.576 19.578C106.992 19.578 105.73 19.2482 104.79 18.5886C103.855 17.9239 103.307 17.0202 103.146 15.8776L106.41 15.7062C106.509 16.1892 106.748 16.5579 107.127 16.8124C107.506 17.0617 107.992 17.1864 108.584 17.1864C109.166 17.1864 109.633 17.0747 109.986 16.8514C110.345 16.6229 110.526 16.3294 110.532 15.9711C110.526 15.6698 110.399 15.4231 110.15 15.231C109.901 15.0336 109.516 14.883 108.997 14.7791L106.925 14.3662C105.756 14.1325 104.886 13.7274 104.315 13.1509C103.749 12.5744 103.466 11.8395 103.466 10.9462C103.466 10.1776 103.673 9.51538 104.089 8.95967C104.51 8.40395 105.099 7.97548 105.857 7.67425C106.621 7.37302 107.514 7.2224 108.537 7.2224C110.049 7.2224 111.238 7.54181 112.105 8.18062C112.978 8.81944 113.487 9.68937 113.632 10.7904Z" fill="#F5F3FF"/>
</svg>
