<svg width="114" height="24" viewBox="0 0 114 24" fill="none" xmlns="http://www.w3.org/2000/svg">
<path d="M14.8205 0.00118937C15.671 0.000585511 16.52 -0.023677 17.3547 0.1799C18.5047 0.454965 19.5595 1.05852 20.4006 1.92306C21.7954 3.37054 22.265 5.06834 22.2668 7.07443V14.3215C22.2673 15.2153 22.2784 16.0834 22.0705 16.9592C21.7842 18.1485 21.1939 19.2343 20.3625 20.0998C19.8915 20.5876 19.3506 20.9959 18.759 21.3088C17.1715 22.1459 15.6708 22.035 13.966 22.0324L8.94353 22.0315C8.47766 22.0312 6.97887 21.9715 6.65154 22.0725C6.42636 22.1419 6.19113 22.3149 5.98357 22.4348L4.39079 23.3547C4.08004 23.5343 3.76511 23.7389 3.43669 23.8801C3.285 23.9453 3.11261 24.0112 2.94646 23.9983C2.82234 23.9886 2.72216 23.9078 2.64958 23.8059C2.55693 23.6756 2.51607 23.5116 2.50505 23.3518C2.46651 22.7921 2.72943 21.4371 2.82146 20.8088C2.61794 20.6624 2.41703 20.5064 2.22966 20.3381C0.939907 19.1688 0.149362 17.51 0.0333725 15.7297C-0.00970446 15.1241 0.00299424 14.5142 0.0030991 13.9074L0.00505223 11.218L0.00407566 8.20334C0.00422944 7.20061 -0.0409992 6.17312 0.166185 5.18771C0.389409 4.11787 0.865297 3.12297 1.54997 2.29416C2.7477 0.857111 4.36259 0.146646 6.1574 0.0129081C6.28058 0.000248257 6.40853 0.00212105 6.5324 0.00118937L12.7609 0.00314249L14.8205 0.00118937ZM9.299 2.25998C8.8214 2.29844 8.34031 2.34403 7.86638 2.41721C7.28835 2.50652 7.04604 2.64979 6.424 2.58029C6.09837 2.78276 5.53504 3.29252 5.44548 3.67306C5.41667 3.79562 5.40085 3.94246 5.33025 4.04806C5.18722 4.26194 4.93642 4.3925 4.7531 4.5676C4.48329 4.82553 3.64923 5.8721 3.53435 6.21506C3.41529 6.57196 3.47212 7.14563 3.41423 7.54513C3.36092 7.91301 3.20843 8.40405 3.4074 8.73752C3.63044 9.11095 4.80725 10.4136 5.16033 10.4914C5.99688 10.6751 7.12528 10.0753 7.94158 10.1975C8.19808 10.2359 8.35957 10.4881 8.60369 10.5461C8.78805 10.5898 9.17496 10.5459 9.29314 10.7219C9.50861 11.0439 9.26528 11.6403 9.32634 12.011C9.44732 12.7439 10.5179 13.6599 10.3283 14.4807C10.2285 14.9116 9.87862 15.269 9.8781 15.7297C9.87781 16.2313 10.2812 16.7057 10.4445 17.1653C10.562 17.496 10.605 17.8484 10.7121 18.1819C10.8184 18.5132 10.9867 18.821 11.1017 19.1496C11.1796 19.3723 11.2333 19.6311 11.3468 19.8362C11.4293 19.9849 11.5441 20.0919 11.7052 20.136C12.0559 20.2317 12.5716 20.0729 12.9201 19.9778C13.5403 19.7492 14.2134 19.2032 14.5011 18.5735C14.6157 18.3225 14.6703 18.1198 14.8869 17.9358C14.9908 17.8475 15.099 17.768 15.1896 17.6643C15.1884 17.1901 15.0701 16.682 15.4123 16.3078C15.8901 15.7856 16.4493 15.6721 16.4474 14.8127C16.4458 14.207 16.1007 13.0869 16.3361 12.5842C16.4178 12.4101 16.5975 12.2388 16.7267 12.1018C17.2401 11.5573 18.0662 10.9205 18.4416 10.2932C18.5981 10.0315 18.7034 9.7327 18.8068 9.44455C18.8762 9.25112 18.987 8.99878 18.9797 8.78928C18.9772 8.72121 18.9619 8.66509 18.9142 8.61545C18.8507 8.54936 18.7278 8.55619 18.6457 8.56369C18.2211 8.60267 17.7944 8.71424 17.3722 8.78049C16.5267 8.09456 16.1108 7.29056 15.6037 6.33517C15.4164 5.98242 15.2056 5.62533 15.0539 5.25412C14.9547 5.01155 14.7402 3.9662 14.5783 3.86349C14.3104 3.69383 13.4595 3.7411 13.1066 3.68088C12.7359 3.61755 12.2812 3.35755 11.9133 3.41623C11.6404 3.46004 11.5868 3.71036 11.3761 3.83322C11.2897 3.88354 11.1881 3.88619 11.0929 3.8674C10.8711 3.82352 9.98575 3.45801 9.7863 3.32248C9.70905 3.26994 9.6565 3.21818 9.63884 3.11935C9.59401 2.8658 9.77188 2.54478 9.62224 2.31564C9.53078 2.25293 9.40564 2.24713 9.299 2.25998ZM18.4562 14.7346C18.1778 14.9499 17.3904 15.5593 17.2502 15.842C17.1043 16.1364 17.0102 16.9073 16.9592 17.2561C16.9346 17.424 16.8909 17.6184 16.9982 17.7639C17.0327 17.8104 17.0907 17.8394 17.1388 17.8664C17.3048 17.8696 17.55 17.9035 17.6779 17.7697C17.9864 17.4449 18.6425 15.5581 18.6349 15.1018C18.6329 14.9902 18.6095 14.856 18.5334 14.7727C18.5014 14.7376 18.5069 14.747 18.4562 14.7346Z" fill="#694BF1"/>
<path d="M29.3988 19.3448H25.7841L31.2919 3.39H35.639L41.139 19.3448H37.5243L33.5278 7.03592H33.4031L29.3988 19.3448ZM29.1729 13.0735H37.7112V15.7067H29.1729V13.0735Z" fill="#0A071A"/>
<path d="M48.3402 7.3787V9.87164H40.9549V7.3787H48.3402ZM42.6454 19.3448V6.51396C42.6454 5.64662 42.8142 4.92731 43.1518 4.35601C43.4945 3.78471 43.962 3.35624 44.554 3.07059C45.1461 2.78494 45.8187 2.64211 46.5718 2.64211C47.0807 2.64211 47.5456 2.68107 47.9663 2.75897C48.3921 2.83688 48.7089 2.90699 48.9167 2.96931L48.3246 5.46225C48.1948 5.4207 48.0338 5.38175 47.8416 5.34539C47.6546 5.30904 47.4625 5.29086 47.2651 5.29086C46.7769 5.29086 46.4367 5.40512 46.2446 5.63364C46.0524 5.85697 45.9563 6.17118 45.9563 6.57628V19.3448H42.6454Z" fill="#0A071A"/>
<path d="M49.4901 19.3448V7.3787H52.7076V9.46653H52.8322C53.0504 8.72385 53.4165 8.16293 53.9307 7.7838C54.4449 7.39947 55.0369 7.20731 55.7069 7.20731C55.8731 7.20731 56.0523 7.2177 56.2444 7.23847C56.4366 7.25924 56.6054 7.28781 56.7508 7.32416V10.2689C56.595 10.2222 56.3795 10.1807 56.1042 10.1443C55.829 10.1079 55.5771 10.0898 55.3485 10.0898C54.8603 10.0898 54.4241 10.1962 54.0398 10.4092C53.6606 10.6169 53.3594 10.9078 53.1361 11.2817C52.9179 11.6556 52.8089 12.0867 52.8089 12.5749V19.3448H49.4901Z" fill="#0A071A"/>
<path d="M57.5891 19.3448V7.3787H60.9079V19.3448H57.5891ZM59.2563 5.83619C58.7629 5.83619 58.3396 5.67259 57.9865 5.34539C57.6385 5.013 57.4645 4.61569 57.4645 4.15346C57.4645 3.69642 57.6385 3.3043 57.9865 2.9771C58.3396 2.64471 58.7629 2.47852 59.2563 2.47852C59.7497 2.47852 60.1704 2.64471 60.5184 2.9771C60.8715 3.3043 61.0481 3.69642 61.0481 4.15346C61.0481 4.61569 60.8715 5.013 60.5184 5.34539C60.1704 5.67259 59.7497 5.83619 59.2563 5.83619Z" fill="#0A071A"/>
<path d="M62.1435 6.17118V3.39H75.247V6.17118H70.3624V19.3448H67.0281V6.17118H62.1435Z" fill="#0A071A"/>
<path d="M78.2491 19.5707C77.4857 19.5707 76.8053 19.4383 76.208 19.1734C75.6108 18.9033 75.1382 18.506 74.7902 17.9815C74.4474 17.4517 74.276 16.7921 74.276 16.0027C74.276 15.3379 74.3981 14.7796 74.6422 14.3278C74.8863 13.8759 75.2187 13.5124 75.6393 13.2371C76.06 12.9618 76.5378 12.7541 77.0728 12.6139C77.6129 12.4736 78.179 12.375 78.7711 12.3178C79.467 12.2451 80.028 12.1776 80.4538 12.1153C80.8797 12.0478 81.1887 11.9491 81.3809 11.8192C81.5731 11.6894 81.6691 11.4972 81.6691 11.2428V11.196C81.6691 10.7026 81.5133 10.3209 81.2017 10.0508C80.8953 9.78075 80.459 9.64571 79.8929 9.64571C79.2957 9.64571 78.8204 9.77815 78.4673 10.043C78.1141 10.3027 77.8804 10.6299 77.7661 11.0246L74.6967 10.7753C74.8525 10.0482 75.1589 9.41979 75.616 8.89004C76.073 8.3551 76.6625 7.9448 77.3844 7.65915C78.1115 7.36831 78.9529 7.22289 79.9085 7.22289C80.5733 7.22289 81.2095 7.30079 81.8172 7.4566C82.43 7.61241 82.9727 7.85391 83.4454 8.18111C83.9232 8.50831 84.2997 8.92899 84.575 9.44316C84.8502 9.95214 84.9879 10.5624 84.9879 11.2739V19.3448H81.8405V17.6854H81.747C81.5549 18.0594 81.2978 18.3892 80.9758 18.6748C80.6538 18.9553 80.2669 19.176 79.815 19.337C79.3632 19.4928 78.8412 19.5707 78.2491 19.5707ZM79.1996 17.2803C79.6878 17.2803 80.1188 17.1843 80.4928 16.9921C80.8667 16.7947 81.1602 16.5299 81.3731 16.1975C81.586 15.8651 81.6925 15.4885 81.6925 15.0679V13.798C81.5886 13.8655 81.4458 13.9279 81.264 13.985C81.0875 14.0369 80.8875 14.0863 80.6642 14.133C80.4408 14.1746 80.2175 14.2135 79.9942 14.2499C79.7709 14.281 79.5683 14.3096 79.3865 14.3356C78.997 14.3927 78.6568 14.4836 78.366 14.6082C78.0752 14.7329 77.8492 14.9017 77.6882 15.1146C77.5272 15.3223 77.4467 15.582 77.4467 15.8936C77.4467 16.3455 77.6103 16.6909 77.9375 16.9298C78.2699 17.1635 78.6906 17.2803 79.1996 17.2803Z" fill="#0A071A"/>
<path d="M90.0038 3.39V19.3448H86.6851V3.39H90.0038Z" fill="#0A071A"/>
<path d="M94.7919 15.9014L94.7997 11.9205H95.2827L99.1156 7.3787H102.925L97.7756 13.3929H96.9888L94.7919 15.9014ZM91.7848 19.3448V3.39H95.1035V19.3448H91.7848ZM99.2636 19.3448L95.7423 14.133L97.9548 11.7881L103.151 19.3448H99.2636Z" fill="#0A071A"/>
<path d="M113.632 10.7909L110.594 10.9779C110.542 10.7182 110.43 10.4845 110.259 10.2767C110.087 10.0638 109.861 9.89501 109.581 9.77036C109.306 9.64052 108.976 9.5756 108.592 9.5756C108.077 9.5756 107.644 9.68467 107.291 9.9028C106.937 10.1157 106.761 10.4014 106.761 10.7597C106.761 11.0454 106.875 11.2869 107.104 11.4843C107.332 11.6816 107.724 11.84 108.28 11.9595L110.446 12.3957C111.609 12.6346 112.476 13.019 113.048 13.5487C113.619 14.0785 113.905 14.7744 113.905 15.6366C113.905 16.4208 113.674 17.1089 113.211 17.701C112.754 18.2931 112.126 18.7553 111.326 19.0877C110.531 19.4149 109.615 19.5785 108.576 19.5785C106.992 19.5785 105.73 19.2487 104.79 18.5891C103.855 17.9243 103.307 17.0207 103.146 15.8781L106.41 15.7067C106.509 16.1897 106.748 16.5584 107.127 16.8129C107.506 17.0622 107.992 17.1869 108.584 17.1869C109.165 17.1869 109.633 17.0752 109.986 16.8519C110.344 16.6233 110.526 16.3299 110.531 15.9715C110.526 15.6703 110.399 15.4236 110.15 15.2315C109.9 15.0341 109.516 14.8835 108.997 14.7796L106.924 14.3667C105.756 14.133 104.886 13.7279 104.315 13.1514C103.748 12.5749 103.465 11.84 103.465 10.9467C103.465 10.1781 103.673 9.51587 104.089 8.96016C104.509 8.40444 105.099 7.97596 105.857 7.67473C106.621 7.3735 107.514 7.22289 108.537 7.22289C110.048 7.22289 111.238 7.5423 112.105 8.18111C112.978 8.81993 113.487 9.68986 113.632 10.7909Z" fill="#0A071A"/>
</svg>
