<svg width="44" height="45" viewBox="0 0 44 45" fill="none" xmlns="http://www.w3.org/2000/svg">
<rect y="0.5" width="44" height="44" rx="12" fill="#694BF1" fill-opacity="0.1"/>
<path d="M15.7666 17.4497L13.1666 14.833L14.3333 13.6663L30.8333 30.1663L29.6666 31.333L26.9 28.583C26.1778 29.0386 25.4111 29.3886 24.6 29.633C23.7555 29.8775 22.8889 29.9997 22 29.9997C20.5333 29.9997 19.1444 29.6663 17.8333 28.9997C16.5778 28.3552 15.5194 27.4636 14.6583 26.3247C13.7972 25.1858 13.2389 23.9108 12.9833 22.4997C13.1611 21.5219 13.4889 20.6025 13.9666 19.7413C14.4444 18.8802 15.0444 18.1163 15.7666 17.4497ZM24.3 25.983L23.0833 24.7497C22.7389 24.9163 22.3778 24.9997 22 24.9997C21.5444 24.9997 21.125 24.8886 20.7416 24.6663C20.3583 24.4441 20.0555 24.1413 19.8333 23.758C19.6111 23.3747 19.5 22.9552 19.5 22.4997C19.5 22.1219 19.5833 21.7608 19.75 21.4163L18.5166 20.1997C18.0611 20.8997 17.8333 21.6663 17.8333 22.4997C17.8333 23.2552 18.0194 23.9525 18.3916 24.5913C18.7639 25.2302 19.2694 25.7358 19.9083 26.108C20.5472 26.4802 21.2444 26.6663 22 26.6663C22.8333 26.6663 23.6 26.4386 24.3 25.983ZM18.65 15.633C19.7166 15.2108 20.8333 14.9997 22 14.9997C23.4666 14.9997 24.8555 15.333 26.1666 15.9997C27.4222 16.6441 28.4805 17.5358 29.3416 18.6747C30.2028 19.8136 30.7611 21.0886 31.0166 22.4997C30.7611 23.8997 30.2 25.1775 29.3333 26.333L26.1166 23.1163C26.15 22.9052 26.1666 22.6997 26.1666 22.4997C26.1666 21.7441 25.9805 21.0469 25.6083 20.408C25.2361 19.7691 24.7305 19.2636 24.0916 18.8913C23.4528 18.5191 22.7555 18.333 22 18.333C21.8 18.333 21.5944 18.3497 21.3833 18.383L18.65 15.633Z" fill="#694BF1"/>
</svg>
