<svg width="44" height="45" viewBox="0 0 44 45" fill="none" xmlns="http://www.w3.org/2000/svg">
<rect y="0.5" width="44" height="44" rx="12" fill="#694BF1" fill-opacity="0.1"/>
<path d="M22 13.3337L28.85 14.8503C29.0389 14.8948 29.1944 14.9948 29.3167 15.1503C29.4389 15.3059 29.5 15.4781 29.5 15.667V23.9837C29.5 24.8281 29.3028 25.617 28.9083 26.3503C28.5139 27.0837 27.9667 27.6837 27.2667 28.1503L22 31.667L16.7333 28.1503C16.0333 27.6837 15.4861 27.0837 15.0917 26.3503C14.6972 25.617 14.5 24.8281 14.5 23.9837V15.667C14.5 15.4781 14.5611 15.3059 14.6833 15.1503C14.8056 14.9948 14.9611 14.8948 15.15 14.8503L22 13.3337ZM25.7167 19.3503L21.5833 23.4837L19.2333 21.117L18.05 22.3003L21.5833 25.8337L26.8833 20.5337L25.7167 19.3503Z" fill="#694BF1"/>
</svg>
